<?xml version="1.0" standalone="no"?>
<!DOCTYPE svg PUBLIC "-//W3C//DTD SVG 20010904//EN"
 "http://www.w3.org/TR/2001/REC-SVG-20010904/DTD/svg10.dtd">
<svg version="1.0" xmlns="http://www.w3.org/2000/svg"
 width="953.000000pt" height="538.000000pt" viewBox="0 0 953.000000 538.000000"
 preserveAspectRatio="xMidYMid meet">
<metadata>
Created by potrace 1.16, written by Peter Selinger 2001-2019
</metadata>
<g transform="translate(0.000000,538.000000) scale(0.100000,-0.100000)"
fill="#000000" stroke="none">
<path d="M1278 5373 c-21 -2 -38 -8 -38 -13 0 -5 -3 -15 -6 -24 -5 -13 2 -16
35 -16 34 0 41 -3 41 -20 0 -13 7 -20 20 -20 13 0 20 -7 20 -20 0 -16 -7 -20
-30 -20 -28 0 -30 -3 -30 -35 0 -43 -25 -56 -108 -59 -50 -1 -53 -2 -47 -23 5
-21 2 -23 -37 -23 -33 0 -46 -5 -56 -21 -10 -15 -10 -19 -1 -14 8 5 10 4 5 -3
-4 -7 -20 -12 -37 -12 -19 0 -29 -5 -29 -15 0 -8 -6 -15 -13 -15 -22 0 -47
-34 -47 -64 0 -15 -4 -25 -9 -22 -5 3 -11 -1 -15 -9 -3 -9 -18 -15 -36 -15
-16 0 -30 -5 -30 -11 0 -21 -29 -39 -63 -39 -27 0 -37 -6 -48 -27 -13 -27 -65
-82 -75 -82 -24 1 -72 -17 -82 -32 -7 -11 -20 -19 -28 -19 -16 0 -53 -38 -54
-55 0 -5 -16 -21 -35 -34 -19 -13 -54 -44 -77 -70 -35 -37 -39 -46 -25 -49 17
-3 24 -42 10 -56 -4 -3 -8 -14 -9 -22 -1 -9 -6 -23 -10 -32 -4 -9 -9 -37 -11
-61 -3 -25 -13 -56 -24 -69 -10 -14 -19 -31 -19 -39 0 -9 -6 -13 -14 -10 -9 4
-13 1 -10 -7 8 -20 -30 -47 -63 -43 -33 4 -71 27 -69 42 1 13 -71 15 -102 4
l-22 -9 0 -2095 0 -2095 2578 2 c1417 2 2265 4 1885 5 l-693 3 0 29 c0 16 -3
36 -6 44 -3 8 2 21 10 30 24 23 19 30 -17 25 -29 -3 -36 1 -57 34 -13 21 -27
38 -31 38 -20 0 -79 77 -79 102 0 23 -9 68 -45 226 -3 12 -12 22 -20 22 -20 0
-29 -41 -22 -112 3 -35 1 -72 -6 -87 -6 -14 -11 -66 -12 -116 -2 -101 -12
-158 -26 -150 -5 4 -14 -7 -21 -22 -7 -15 -17 -31 -23 -35 -5 -4 0 -8 13 -8
12 0 22 -4 22 -10 0 -16 -875 -14 -888 2 -24 31 -21 223 9 556 12 127 11 134
-8 160 -16 21 -21 48 -25 125 -3 53 -1 97 3 97 5 0 9 15 9 34 0 32 -2 35 -40
41 -24 4 -40 12 -40 21 0 7 -11 16 -24 20 -23 5 -23 8 -23 115 0 72 -4 114
-13 124 -7 8 -10 27 -7 42 3 18 0 31 -11 40 -15 11 -14 12 7 13 19 0 22 4 17
22 -3 13 -6 37 -6 55 0 22 -6 33 -17 36 -17 4 -17 5 0 6 23 1 22 17 -3 24 -26
7 -60 -2 -60 -16 0 -6 -8 -2 -19 9 -12 13 -17 30 -14 50 2 16 0 49 -4 74 -7
39 -12 45 -35 48 -20 2 -27 10 -32 35 -8 40 -63 89 -93 84 -18 -3 -23 0 -23
19 0 12 -6 24 -14 26 -11 2 -12 9 -2 38 11 33 13 35 64 38 50 3 52 4 52 33 0
18 -5 29 -14 29 -8 0 -17 6 -20 13 -3 6 -3 2 -1 -9 4 -15 0 -23 -13 -26 -15
-4 -18 -1 -14 17 3 17 -2 25 -17 30 -16 5 -21 15 -21 40 0 31 3 34 32 37 l32
3 -3 55 c-3 66 -5 70 -32 63 -24 -7 -39 -40 -39 -91 0 -35 -1 -36 -17 -18 -13
13 -15 20 -5 23 22 8 13 33 -18 51 -16 9 -30 23 -30 30 0 15 -15 15 -42 1 -14
-7 -28 -8 -42 -1 -11 5 -34 13 -51 18 l-30 10 0 77 c0 53 5 81 14 86 7 5 12
10 11 12 0 2 5 20 14 39 8 19 12 38 10 42 -8 12 36 29 57 23 11 -4 26 -19 32
-33 14 -33 32 -52 47 -52 18 0 37 24 32 39 -3 8 5 21 16 30 12 9 28 34 35 56
7 22 23 44 34 49 18 8 21 19 22 68 0 43 -3 58 -13 58 -8 0 -24 11 -37 25 -18
18 -34 25 -65 25 -23 0 -55 5 -73 11 -29 10 -31 14 -31 60 0 45 2 49 23 49 28
0 87 -27 87 -40 0 -5 8 -10 18 -12 18 -4 72 54 72 79 0 7 4 21 9 31 53 97 62
127 63 216 1 63 5 98 16 114 28 43 0 204 -36 208 -4 0 -20 6 -37 13 -81 34
-106 39 -148 29 -23 -5 -49 -15 -57 -22 -8 -7 -39 -21 -69 -30 -29 -10 -60
-23 -67 -31 -8 -7 -23 -11 -34 -8 -12 3 -35 -4 -58 -19 -54 -36 -70 -39 -112
-27 -32 10 -41 9 -54 -4 -13 -12 -13 -17 -2 -26 7 -6 16 -8 19 -4 4 3 7 1 7
-6 0 -8 -7 -10 -20 -6 -12 4 -20 2 -20 -5 0 -6 -4 -9 -9 -6 -5 4 -11 1 -13 -6
-2 -6 -33 -13 -74 -15 -39 -2 -87 -12 -111 -24 -24 -10 -51 -19 -62 -19 -13 0
-21 -9 -26 -30 -4 -16 -10 -30 -15 -30 -4 0 -6 10 -3 21 4 16 2 20 -8 17 -8
-3 -14 -16 -13 -30 0 -16 -4 -24 -12 -21 -7 2 -15 0 -19 -6 -3 -6 -16 -11 -28
-11 -12 0 -28 -9 -35 -20 -7 -11 -20 -20 -30 -20 -24 0 -39 -34 -48 -109 -3
-34 -11 -61 -16 -61 -5 0 -6 -5 -3 -11 4 -5 -4 -20 -18 -33 -17 -16 -27 -39
-31 -71 -4 -27 -11 -56 -16 -66 -13 -23 -13 -69 0 -69 11 0 13 -33 4 -78 -4
-18 -11 -29 -18 -26 -7 3 -18 -11 -26 -31 -8 -19 -16 -32 -19 -28 -9 12 -41
17 -86 16 -22 -1 -56 -2 -75 -2 -22 -1 -30 -4 -22 -9 9 -6 1 -12 -25 -20 -35
-11 -39 -10 -55 11 -26 33 -21 87 7 87 9 0 15 25 20 80 4 44 11 80 15 80 5 0
8 33 8 73 0 39 5 85 12 102 6 16 8 46 5 66 -5 29 -2 42 12 56 14 14 20 36 22
84 1 35 8 71 15 79 8 8 16 46 20 84 4 38 13 75 21 83 8 8 15 28 15 44 0 16 5
29 10 29 6 0 10 -4 10 -10 0 -5 5 -10 10 -10 6 0 10 18 10 40 0 31 4 40 18 40
16 0 42 40 42 67 0 21 51 72 66 66 10 -4 14 4 14 30 0 30 4 37 31 46 17 6 35
8 40 5 5 -3 9 6 9 20 0 40 10 56 46 71 29 12 127 26 204 29 23 1 25 5 28 54 2
34 -1 52 -8 52 -8 0 -10 -13 -5 -40 4 -26 3 -40 -4 -40 -6 0 -11 18 -11 40 0
29 -4 40 -15 40 -8 0 -15 5 -15 10 0 6 12 10 26 10 29 0 54 21 54 44 0 16 14
18 107 20 27 1 28 -1 38 -74 l10 -75 35 0 35 0 3 73 3 72 39 0 c22 0 60 5 85
12 l45 12 0 68 0 68 40 0 40 0 0 58 c0 82 16 102 86 102 l54 0 0 35 c0 48 22
125 36 125 6 0 19 9 29 20 10 11 21 20 25 20 4 0 10 -9 13 -20 3 -11 12 -20
21 -20 12 0 16 -10 16 -40 l0 -40 50 0 50 0 0 41 c0 32 3 40 18 38 9 -1 41 -1
70 0 45 1 52 4 52 21 0 17 -7 20 -40 20 -22 0 -40 5 -40 10 0 6 -9 10 -20 10
-11 0 -20 3 -20 6 0 11 29 34 44 34 9 0 16 4 16 10 0 5 13 7 30 4 36 -8 64 11
56 38 -5 20 13 31 67 42 19 5 27 13 27 29 0 12 7 30 14 40 14 18 66 24 66 7 0
-6 31 -10 74 -10 l74 0 6 31 c9 49 9 49 -44 49 -49 0 -50 1 -50 30 0 28 3 30
36 30 36 0 81 29 56 38 -6 2 -12 10 -12 19 0 25 27 43 64 43 20 0 36 5 36 10
0 6 17 10 39 10 35 0 38 2 34 23 -3 13 1 28 9 34 19 15 78 25 78 13 0 -6 5
-10 10 -10 6 0 10 9 10 20 0 11 5 20 10 20 6 0 10 7 10 16 0 9 9 18 20 21 11
3 20 9 20 13 0 4 16 23 35 43 71 73 132 68 -813 65 -689 -2 -852 -6 -865 -16
-9 -8 -19 -35 -22 -60 -10 -71 -15 -82 -36 -82 -10 0 -19 5 -19 10 0 6 5 10
10 10 6 0 10 13 10 29 0 16 6 32 13 34 9 4 9 8 1 14 -7 4 -14 19 -15 33 -4 27
-20 31 -91 23z m-721 -2474 c-3 -39 -10 -76 -16 -82 -6 -6 -11 -24 -11 -40 0
-15 -4 -36 -10 -46 -5 -10 -10 -36 -11 -57 -5 -110 -29 -222 -58 -279 -17 -33
-39 -66 -49 -73 -9 -7 -16 -16 -14 -20 1 -4 -8 -7 -20 -7 -16 0 -22 5 -20 16
1 9 -5 22 -13 29 -17 14 -19 7 -6 -37 8 -28 7 -31 -15 -36 -14 -2 -27 0 -30 5
-22 35 114 437 156 463 6 4 7 11 4 17 -8 12 94 218 108 218 6 0 8 -28 5 -71z
m615 -355 c25 -8 30 -32 33 -179 2 -73 6 -138 9 -144 4 -6 9 -58 10 -116 4
-104 4 -105 -21 -111 -13 -4 -41 -3 -61 0 -105 19 -219 34 -237 33 -14 -1 -21
5 -23 23 -2 14 -8 30 -12 35 -13 16 16 135 47 195 25 48 28 65 29 150 0 120 0
118 27 123 27 5 176 -1 199 -9z m-922 -461 c0 -9 3 -13 6 -10 10 9 46 -12 39
-24 -4 -5 -1 -9 5 -9 7 0 10 -15 8 -37 -2 -28 -9 -41 -27 -49 -25 -13 -61 -61
-61 -82 0 -7 14 -26 30 -44 26 -26 30 -39 30 -83 0 -49 -21 -148 -51 -237 -10
-30 -18 -38 -36 -38 -16 0 -23 6 -23 20 0 11 -4 20 -10 20 -5 0 -10 -4 -10 -9
0 -11 -55 -46 -87 -56 -46 -13 -53 67 -13 145 4 9 11 31 15 50 4 19 11 41 15
50 5 8 18 47 30 85 12 39 25 79 29 90 5 11 20 56 34 100 14 44 30 92 36 108
11 29 41 37 41 10z m580 -789 c0 -14 -14 -110 -30 -212 -17 -103 -39 -245 -50
-317 -23 -142 -34 -180 -51 -169 -13 8 -10 46 22 259 42 283 69 439 80 452 18
20 29 15 29 -13z"/>
<path d="M4775 3956 c-22 -8 -55 -16 -73 -20 -19 -3 -48 -12 -65 -20 -18 -8
-50 -20 -72 -26 -49 -15 -112 -46 -144 -71 -13 -11 -42 -24 -65 -30 -24 -6
-53 -23 -69 -41 -30 -34 -57 -112 -57 -167 0 -20 -10 -70 -21 -111 -11 -41
-25 -95 -30 -120 -24 -107 23 -364 84 -469 l20 -33 -31 -25 c-18 -14 -32 -34
-32 -46 0 -11 20 -50 44 -86 63 -95 102 -170 110 -216 10 -51 41 -94 80 -110
17 -7 47 -29 67 -49 20 -20 58 -52 85 -71 27 -19 44 -35 39 -36 -6 0 -1 -4 11
-9 40 -16 59 -75 58 -183 l0 -98 -38 -35 c-20 -19 -41 -34 -46 -34 -17 0 -21
-39 -6 -75 9 -20 20 -76 26 -123 6 -48 15 -91 21 -96 5 -6 9 -18 9 -29 0 -10
20 -43 45 -74 25 -30 45 -58 45 -62 0 -4 12 -13 26 -20 23 -10 26 -16 21 -54
-3 -29 3 -65 21 -119 23 -69 32 -82 90 -135 86 -77 171 -162 204 -204 43 -53
75 -166 93 -329 2 -14 4 -27 4 -29 1 -2 9 4 20 13 14 12 20 35 23 89 4 61 12
88 49 163 24 49 56 102 71 118 16 16 28 33 28 37 0 5 29 49 65 98 36 48 65 91
65 95 0 3 17 34 38 68 21 35 43 74 50 88 13 28 15 30 90 144 58 89 54 64 54
336 0 96 -4 135 -18 170 -31 79 -43 91 -83 88 l-36 -3 0 -66 c0 -68 -11 -91
-47 -97 -22 -4 -23 -12 4 144 17 104 19 139 11 165 -10 31 -11 27 -12 -42 -1
-42 -4 -79 -8 -83 -10 -10 -43 -98 -43 -116 0 -8 -9 -21 -20 -28 -11 -7 -20
-19 -20 -27 0 -8 -4 -15 -10 -15 -5 0 -11 0 -12 -1 -33 -11 -94 -15 -100 -6
-14 21 -8 67 13 113 20 44 20 46 2 60 -11 9 -30 12 -52 8 -23 -4 -39 0 -52 12
-22 20 -23 35 -8 79 14 37 4 105 -15 105 -21 0 -55 44 -62 79 -6 27 -3 37 11
48 22 15 109 18 100 3 -3 -5 -1 -10 4 -10 7 0 9 -15 6 -38 -4 -29 0 -44 15
-59 16 -17 44 -23 58 -13 1 2 8 3 15 4 15 1 22 152 7 161 -6 3 -10 25 -10 49
0 78 -89 259 -187 378 -77 95 -116 82 -78 -27 10 -32 12 -52 5 -63 -8 -14 -9
-14 -10 -2 0 37 -93 49 -107 14 -12 -31 -33 -14 -35 29 -7 150 -18 236 -37
288 -9 23 -11 47 -6 65 8 30 9 29 20 -20 8 -36 102 -136 128 -136 13 0 17 -5
13 -15 -3 -8 -1 -15 4 -15 6 0 10 -8 10 -19 0 -14 10 -20 40 -25 23 -3 39 -10
36 -15 -3 -5 0 -8 7 -7 26 2 86 -29 92 -48 4 -13 8 -16 12 -8 2 6 17 12 32 12
31 0 61 41 61 84 0 14 4 26 8 26 5 0 9 6 10 13 4 26 6 84 4 140 -2 54 -5 62
-41 96 -38 37 -39 39 -25 66 20 40 18 49 -21 84 -33 28 -54 37 -80 31 -5 -1
-7 2 -3 6 4 4 4 12 -1 18 -12 16 -20 56 -11 56 4 0 7 13 6 30 -1 16 -4 30 -8
30 -6 0 -19 31 -24 57 -3 17 23 36 37 27 8 -4 9 -3 5 4 -5 8 0 12 13 12 12 0
21 -3 21 -8 0 -4 9 -12 21 -17 31 -15 147 -253 164 -335 4 -19 21 -60 38 -90
17 -30 37 -68 46 -85 8 -16 18 -32 22 -35 3 -3 8 -14 10 -25 3 -11 12 -21 22
-23 16 -3 18 2 15 34 -2 31 2 40 24 57 35 26 42 19 39 -39 0 -26 3 -61 9 -78
5 -17 12 -44 16 -61 l7 -30 15 35 c8 20 15 68 16 114 1 83 2 82 -56 105 -27
10 -28 13 -28 85 0 40 -7 93 -15 116 -8 23 -15 51 -15 61 0 9 -14 48 -31 84
-17 37 -37 89 -45 116 -17 55 -73 119 -105 119 -12 0 -43 23 -74 55 -29 30
-56 55 -60 55 -8 0 -45 44 -60 73 -5 10 -28 28 -50 40 -22 12 -41 25 -43 29
-2 4 -16 5 -31 2 -16 -4 -32 -1 -35 5 -11 16 -35 13 -65 -8 -22 -16 -35 -18
-64 -11 -21 4 -46 6 -57 3 -10 -3 -33 2 -51 11 -38 19 -61 19 -114 2z m545
-1370 c22 -30 31 -56 19 -56 -6 0 -7 -4 -4 -10 3 -5 1 -10 -4 -10 -6 0 -11 6
-11 13 0 6 -5 4 -11 -5 -5 -10 -17 -18 -24 -18 -8 0 -15 -6 -15 -14 0 -18 -27
-28 -52 -20 -13 4 -18 12 -15 25 3 10 0 19 -6 19 -8 0 -7 4 1 12 15 15 16 32
2 23 -12 -7 -12 0 -3 34 8 30 60 53 88 39 11 -6 27 -20 35 -32z m-447 -1267
c14 -11 39 -28 58 -37 19 -9 40 -30 48 -47 8 -16 20 -36 28 -43 22 -23 84
-166 79 -185 -2 -9 -1 -15 3 -13 14 9 31 -11 37 -44 7 -35 6 -34 -64 38 -40
39 -75 72 -80 72 -11 0 -72 88 -72 104 0 7 -7 19 -15 26 -20 16 -19 30 2 45
15 11 15 15 4 29 -10 12 -17 13 -26 6 -10 -8 -15 -5 -21 12 -3 13 -11 26 -17
29 -9 6 -2 29 9 29 2 0 14 -9 27 -21z"/>
<path d="M5640 2929 c0 -12 5 -38 12 -56 8 -23 9 -44 3 -71 -12 -43 -4 -147
10 -147 5 0 13 23 18 50 4 28 14 64 22 82 16 33 20 120 7 140 -4 7 -22 16 -40
19 -29 6 -32 4 -32 -17z"/>
<path d="M5304 379 c8 -48 10 -116 8 -251 l-2 -117 -77 -4 c-43 -1 219 -3 582
-3 606 1 615 1 121 3 -386 2 -542 6 -547 14 -4 7 -10 54 -14 105 -5 69 -12
100 -26 118 -14 18 -19 40 -19 84 0 42 -5 63 -16 73 -14 11 -15 9 -10 -22z"/>
<path d="M7923 3 c295 -2 779 -2 1075 0 295 1 53 2 -538 2 -591 0 -833 -1
-537 -2z"/>
</g>
</svg>
